<svg viewBox="-768 -351.5 1536 703" width="1536" height="703" style="background-color: rgb(255, 255, 255);" xmlns="http://www.w3.org/2000/svg"><path d="M-274.52365491504156,38.40994732375077L-352.96181020349707,30.885465139338123M-352.96181020349707,-124.77725798548862L-352.96181020349707,30.885465139338123M-352.96181020349707,30.885465139338123L-399.7670515515722,81.84985199328112M-274.52365491504156,-117.252775801076L-274.52365491504156,38.40994732375077M-274.52365491504156,38.40994732375077L-321.3288962631168,89.37433417769375" style="fill:none;stroke:rgb(0,0,0);stroke-width:1;stroke-linecap:round"></path><path d="M-274.52365491504156,38.40994732375077L-352.961810203497,30.885465139338123L-352.961810203497,-124.77725798548862z" style="fill:rgb(238,238,238); fill-opacity: 0.4"></path><path d="M-191.88971224866776,46.33692657427402L-195.92063620573782,45.95024466685082M-195.92063620573782,-109.71247845797593L-195.92063620573782,45.95024466685082M-195.92063620573782,45.95024466685082L-242.725877553813,96.9146315207938M-191.88971224866776,-109.32579655055277L-191.88971224866776,46.33692657427402M-191.88971224866776,46.33692657427402L-238.6949535967429,97.30131342821699" style="fill:none;stroke:rgb(0,0,0);stroke-width:1;stroke-linecap:round"></path><path d="M-274.52365491504156,-117.252775801076L-274.52365491504156,38.40994732375077L-352.961810203497,-124.77725798548862z" style="fill:rgb(238,238,238); fill-opacity: 0.4"></path><path d="M-274.52365491504156,-117.252775801076L-352.96181020349707,-124.77725798548862M-352.96181020349707,-124.77725798548862L-399.7670515515722,-73.81287113154566" style="fill:none;stroke:rgb(0,0,0);stroke-width:1;stroke-linecap:round"></path><path d="M-399.7670515515721,81.84985199328112L-352.961810203497,30.885465139338123L-274.52365491504156,38.40994732375077zM-191.88971224866776,46.33692657427402L-195.92063620573782,45.95024466685083L-195.92063620573782,-109.71247845797593z" style="fill:rgb(238,238,238); fill-opacity: 0.4"></path><path d="M-2.7129327317419873,61.9427257442263L-114.47387607462971,51.22162675860953M-114.47387607462971,-96.54455331511886L-114.47387607462971,51.22162675860953M-114.47387607462971,51.22162675860953L-158.90475575214782,99.60066455282761M-274.52365491504156,-117.252775801076L-321.3288962631168,-66.28838894713301" style="fill:none;stroke:rgb(0,0,0);stroke-width:1;stroke-linecap:round"></path><path d="M-191.88971224866776,-109.32579655055274L-191.88971224866776,46.33692657427402L-195.92063620573782,-109.71247845797593zM-352.961810203497,-124.77725798548862L-352.961810203497,30.885465139338123L-399.7670515515721,-73.81287113154566zM-321.3288962631168,89.37433417769375L-274.52365491504156,38.40994732375077L-274.52365491504156,-117.252775801076z" style="fill:rgb(238,238,238); fill-opacity: 0.4"></path><path d="M-294.07757687671653,-24.302523400518943L-372.5157321651719,-31.827005584931584M-372.5157321651719,-35.80609048921802L-372.5157321651719,-31.827005584931584M-372.5157321651719,-31.827005584931584L-373.71217808074454,-30.524242673453294M-294.07757687671653,-28.281608304805378L-372.5157321651719,-35.80609048921802M-372.5157321651719,-35.80609048921802L-373.71217808074454,-34.50332757773974" style="fill:none;stroke:rgb(0,0,0);stroke-width:1;stroke-linecap:round"></path><path d="M-372.5157321651719,-35.80609048921802L-372.5157321651719,-31.827005584931584L-373.71217808074454,-34.50332757773973zM-372.5157321651719,-31.827005584931584L-373.71217808074454,-30.52424267345329L-373.71217808074454,-34.50332757773973z" style="fill:rgb(153,221,255); fill-opacity: 0.4"></path><path d="M-242.725877553813,96.9146315207938L-195.92063620573782,45.95024466685083L-191.88971224866776,46.33692657427402z" style="fill:rgb(238,238,238); fill-opacity: 0.4"></path><path d="M-373.71217808074454,-34.50332757773974L-373.71217808074454,-30.524242673453294M-373.71217808074454,-30.524242673453294L-295.27402279228914,-22.999760489040654M-373.71217808074454,-34.50332757773974L-295.27402279228914,-26.978845393327088M-191.88971224866776,-109.32579655055277L-195.92063620573782,-109.71247845797593M-195.92063620573782,-109.71247845797593L-242.725877553813,-58.748091604032965M-191.88971224866776,-109.32579655055277L-238.6949535967429,-58.36140969660977" style="fill:none;stroke:rgb(0,0,0);stroke-width:1;stroke-linecap:round"></path><path d="M-294.07757687671653,-24.302523400518943L-372.5157321651719,-31.827005584931584L-372.5157321651719,-35.80609048921802zM-373.71217808074454,-30.52424267345329L-372.5157321651719,-31.827005584931584L-294.07757687671653,-24.302523400518943z" style="fill:rgb(153,221,255); fill-opacity: 0.4"></path><path d="M-2.7129327317419873,61.94272574422631L-114.47387607462971,51.221626758609546L-114.47387607462971,-96.54455331511888z" style="fill:rgb(238,238,238); fill-opacity: 0.4"></path><path d="M-373.71217808074454,-34.50332757773973L-295.27402279228914,-26.978845393327084L-372.5157321651719,-35.80609048921802zM-373.71217808074454,-34.50332757773973L-373.71217808074454,-30.52424267345329L-295.27402279228914,-26.978845393327084z" style="fill:rgb(153,221,255); fill-opacity: 0.4"></path><path d="M-2.7129327317419873,-85.82345432950213L-2.7129327317419873,61.9427257442263M-2.7129327317419873,61.9427257442263L-47.14381240926008,110.32176353844436" style="fill:none;stroke:rgb(0,0,0);stroke-width:1;stroke-linecap:round"></path><path d="M-294.07757687671653,-28.281608304805374L-294.07757687671653,-24.302523400518943L-372.5157321651719,-35.80609048921802zM-295.27402279228914,-22.999760489040646L-373.71217808074454,-30.52424267345329L-294.07757687671653,-24.302523400518943zM-295.27402279228914,-26.978845393327084L-294.07757687671653,-28.281608304805374L-372.5157321651719,-35.80609048921802zM-373.71217808074454,-30.52424267345329L-295.27402279228914,-22.999760489040646L-295.27402279228914,-26.978845393327084z" style="fill:rgb(153,221,255); fill-opacity: 0.4"></path><path d="M-238.6949535967429,97.301313428217L-191.88971224866776,46.33692657427402L-191.88971224866776,-109.32579655055274z" style="fill:rgb(238,238,238); fill-opacity: 0.4"></path><path d="M-294.07757687671653,-28.281608304805378L-294.07757687671653,-24.302523400518943M-294.07757687671653,-24.302523400518943L-295.27402279228914,-22.999760489040654M-294.0775721511584,-28.28160756051987L-294.0775721511584,-24.30252265623344M-294.0775721511584,-24.30252265623344L-295.274018066731,-22.999759744755146M-294.0775721511584,-24.30252265623344L-214.057319090946,-17.907045803798265" style="fill:none;stroke:rgb(0,0,0);stroke-width:1;stroke-linecap:round"></path><path d="M-321.3288962631168,89.37433417769375L-399.7670515515721,81.84985199328112L-274.52365491504156,38.40994732375077z" style="fill:rgb(238,238,238); fill-opacity: 0.4"></path><path d="M-294.07757687671653,-28.281608304805378L-295.27402279228914,-26.978845393327088M-294.0775721511584,-28.28160756051987L-295.274018066731,-26.97884464904158M-294.0775721511584,-28.28160756051987L-214.057319090946,-17.907045803798265" style="fill:none;stroke:rgb(0,0,0);stroke-width:1;stroke-linecap:round"></path><path d="M-295.27402279228914,-22.999760489040646L-294.07757687671653,-24.302523400518943L-294.07757687671653,-28.281608304805374z" style="fill:rgb(153,221,255); fill-opacity: 0.4"></path><path d="M-294.0775753302797,-28.281608156457462L-294.0775753302797,-24.302523252171028L-295.2740212458523,-22.99976034069274z" style="fill:rgb(255,187,187); fill-opacity: 0.4"></path><path d="M-295.27402279228914,-26.978845393327084L-295.27402279228914,-22.999760489040646L-294.07757687671653,-28.281608304805374z" style="fill:rgb(153,221,255); fill-opacity: 0.4"></path><path d="M-294.0775753302797,-28.281608156457462L-295.2740212458523,-22.99976034069274L-295.2740212458523,-26.978845244979176z" style="fill:rgb(255,187,187); fill-opacity: 0.4"></path><path d="M-295.27402279228914,-26.978845393327088L-295.27402279228914,-22.999760489040654M-295.274018066731,-22.999759744755146L-295.274018066731,-26.97884464904158M-295.274018066731,-22.999759744755146L-214.057319090946,-17.907045803798265" style="fill:none;stroke:rgb(0,0,0);stroke-width:1;stroke-linecap:round"></path><path d="M-352.961810203497,30.885465139338123L-399.7670515515721,81.84985199328112L-399.7670515515721,-73.81287113154566zM-321.3288962631168,-66.28838894713301L-274.52365491504156,-117.252775801076L-352.961810203497,-124.77725798548862z" style="fill:rgb(238,238,238); fill-opacity: 0.4"></path><path d="M-295.274018066731,-26.97884464904158L-214.057319090946,-17.907045803798265" style="fill:none;stroke:rgb(0,0,0);stroke-width:1;stroke-linecap:round"></path><path d="M-294.0775753302797,-24.302523252171028L-294.0775753302797,-28.281608156457462L-214.05731914666404,-17.907046100111366zM-295.2740212458523,-22.99976034069274L-294.0775753302797,-24.302523252171028L-214.05731914666404,-17.907046100111366z" style="fill:rgb(255,187,187); fill-opacity: 0.4"></path><path d="M-2.7129327317419873,-85.82345432950213L-114.47387607462971,-96.54455331511886M-114.47387607462971,-96.54455331511886L-158.90475575214782,-48.16551552090082" style="fill:none;stroke:rgb(0,0,0);stroke-width:1;stroke-linecap:round"></path><path d="M-294.0775753302797,-28.281608156457462L-295.2740212458523,-26.978845244979176L-214.05731914666404,-17.907046100111366zM-295.2740212458523,-26.978845244979176L-295.2740212458523,-22.99976034069274L-214.05731914666404,-17.907046100111366z" style="fill:rgb(255,187,187); fill-opacity: 0.4"></path><path d="M-2.7129327317419873,-85.82345432950211L-2.7129327317419873,61.94272574422631L-114.47387607462971,-96.54455331511888zM-195.92063620573782,-109.71247845797593L-195.92063620573782,45.95024466685083L-242.725877553813,-58.74809160403295zM-158.90475575214782,99.6006645528276L-114.47387607462971,51.221626758609546L-2.7129327317419873,61.94272574422631z" style="fill:rgb(238,238,238); fill-opacity: 0.4"></path><path d="M101.74702567091047,222.41619010999534L73.80678983518854,219.73591536359112M73.80678983518855,-186.12011957061256L73.80678983518854,219.73591536359112M73.80678983518854,219.73591536359112L65.51365868168419,228.76597977869667" style="fill:none;stroke:rgb(0,0,0);stroke-width:1;stroke-linecap:round"></path><path d="M-238.6949535967429,97.301313428217L-242.725877553813,96.9146315207938L-191.88971224866776,46.33692657427402zM-238.6949535967429,-58.36140969660977L-191.88971224866776,-109.32579655055274L-195.92063620573782,-109.71247845797593z" style="fill:rgb(238,238,238); fill-opacity: 0.4"></path><path d="M-399.7670515515722,-73.81287113154566L-399.7670515515722,81.84985199328112M-399.7670515515722,81.84985199328112L-321.3288962631168,89.37433417769375M101.74702567091047,-183.43984482420834L101.74702567091047,222.41619010999534M101.74702567091047,222.41619010999534L93.45389451740613,231.4462545251009" style="fill:none;stroke:rgb(0,0,0);stroke-width:1;stroke-linecap:round"></path><path d="M-114.47387607462971,-96.54455331511888L-114.47387607462971,51.221626758609546L-158.90475575214782,-48.16551552090082z" style="fill:rgb(238,238,238); fill-opacity: 0.4"></path><path d="M-2.7129327317419873,-85.82345432950213L-47.14381240926008,-37.444416535284056M-218.546638617187,0.03031059088691183L-222.57756257425712,-0.35637131653627346M-222.57756257425712,-40.14722035940064L-222.57756257425712,-0.35637131653627346M-222.57756257425712,-0.35637131653627346L-234.54202172998322,12.671257798246652" style="fill:none;stroke:rgb(0,0,0);stroke-width:1;stroke-linecap:round"></path><path d="M65.51365868168422,228.76597977869673L73.80678983518857,219.73591536359115L101.74702567091046,222.41619010999534z" style="fill:rgb(238,238,238); fill-opacity: 0.4"></path><path d="M-220.5621006236701,-39.95387842477829L-220.5621006236701,-0.1630300934297385M-220.5621006236701,-0.1630300934297385L-232.52655977939622,12.864599021353184M-220.5621006236701,-0.1630300934297385L-145.45729274430866,-5.438701988763136M-218.546638617187,-39.76053845197746L-218.546638617187,0.03031059088691183M-218.546638617187,0.03031059088691183L-230.51109777291316,13.057939705669837" style="fill:none;stroke:rgb(0,0,0);stroke-width:1;stroke-linecap:round"></path><path d="M-321.3288962631168,-66.28838894713301L-321.3288962631168,89.37433417769375L-274.52365491504156,-117.252775801076z" style="fill:rgb(238,238,238); fill-opacity: 0.4"></path><path d="M-218.546638617187,0.03031059088691183L-222.57756257425712,-0.3563713165362759L-222.57756257425712,-40.14722035940065z" style="fill:rgb(153,221,255); fill-opacity: 0.4"></path><path d="M-399.7670515515721,-73.81287113154566L-321.3288962631168,-66.28838894713301L-352.961810203497,-124.77725798548862zM-195.92063620573782,45.95024466685083L-242.725877553813,96.9146315207938L-242.725877553813,-58.74809160403295z" style="fill:rgb(238,238,238); fill-opacity: 0.4"></path><path d="M-218.546638617187,-39.76053845197746L-218.546638617187,0.03031059088691183L-222.57756257425712,-40.14722035940065z" style="fill:rgb(153,221,255); fill-opacity: 0.4"></path><path d="M93.45389451740613,231.4462545251009L65.51365868168422,228.76597977869673L101.74702567091046,222.41619010999534zM-47.14381240926008,110.32176353844436L-2.7129327317419873,61.94272574422631L-2.7129327317419873,-85.82345432950211z" style="fill:rgb(238,238,238); fill-opacity: 0.4"></path><path d="M-234.54202172998322,12.671257798246652L-222.57756257425712,-0.3563713165362759L-218.546638617187,0.03031059088691183z" style="fill:rgb(153,221,255); fill-opacity: 0.4"></path><path d="M-218.546638617187,-39.76053845197746L-222.57756257425712,-40.14722035940064M-222.57756257425712,-40.14722035940064L-234.54202172998322,-27.119591244617716M-220.5621006236701,-39.95387842477829L-232.52655977939622,-26.926249309995356M-220.5621006236701,-39.95387842477829L-145.45729274430866,-5.438701988763136M-218.546638617187,-39.76053845197746L-230.51109777291316,-26.73290933719453M65.5136586816842,-177.090055155507L65.51365868168419,228.76597977869667M65.51365868168419,228.76597977869667L93.45389451740613,231.4462545251009M-321.3288962631168,-66.28838894713301L-321.3288962631168,89.37433417769375" style="fill:none;stroke:rgb(0,0,0);stroke-width:1;stroke-linecap:round"></path><path d="M-220.56210059572206,-39.95387940568906L-220.56210059572206,-0.16303036282468206L-232.5265597514482,12.864598751958244z" style="fill:rgb(255,187,187); fill-opacity: 0.4"></path><path d="M-230.5110977729131,13.057939705669837L-218.546638617187,0.03031059088691183L-218.546638617187,-39.76053845197746z" style="fill:rgb(153,221,255); fill-opacity: 0.4"></path><path d="M-220.56210059572206,-0.16303036282468206L-220.56210059572206,-39.95387940568906L-145.4572957366726,-5.43870300988547z" style="fill:rgb(255,187,187); fill-opacity: 0.4"></path><path d="M-222.57756257425712,-40.14722035940065L-222.57756257425712,-0.3563713165362759L-234.54202172998322,-27.119591244617716z" style="fill:rgb(153,221,255); fill-opacity: 0.4"></path><path d="M93.45389451740614,-174.40978040910275L93.45389451740613,231.4462545251009" style="fill:none;stroke:rgb(0,0,0);stroke-width:1;stroke-linecap:round"></path><path d="M-238.6949535967429,-58.36140969660977L-238.6949535967429,97.301313428217L-191.88971224866776,-109.32579655055274z" style="fill:rgb(238,238,238); fill-opacity: 0.4"></path><path d="M-230.5110977729131,13.057939705669837L-234.54202172998322,12.671257798246652L-218.546638617187,0.03031059088691183z" style="fill:rgb(153,221,255); fill-opacity: 0.4"></path><path d="M-399.7670515515721,81.84985199328112L-321.3288962631168,89.37433417769375L-321.3288962631168,-66.28838894713301z" style="fill:rgb(238,238,238); fill-opacity: 0.4"></path><path d="M-230.5110977729131,-26.73290933719453L-218.546638617187,-39.76053845197746L-222.57756257425712,-40.14722035940065z" style="fill:rgb(153,221,255); fill-opacity: 0.4"></path><path d="M-232.5265597514482,12.864598751958244L-220.56210059572206,-0.16303036282468206L-145.4572957366726,-5.43870300988547z" style="fill:rgb(255,187,187); fill-opacity: 0.4"></path><path d="M-114.47387607462971,51.221626758609546L-158.90475575214782,99.6006645528276L-158.90475575214782,-48.16551552090082z" style="fill:rgb(238,238,238); fill-opacity: 0.4"></path><path d="M-222.57756257425712,-0.3563713165362759L-234.54202172998322,12.671257798246652L-234.54202172998322,-27.119591244617716z" style="fill:rgb(153,221,255); fill-opacity: 0.4"></path><path d="M-47.14381240926008,110.32176353844436L-158.90475575214782,99.6006645528276L-2.7129327317419873,61.94272574422631z" style="fill:rgb(238,238,238); fill-opacity: 0.4"></path><path d="M-220.56210059572206,-39.95387940568906L-232.5265597514482,12.864598751958244L-232.5265597514482,-26.926250290906125z" style="fill:rgb(255,187,187); fill-opacity: 0.4"></path><path d="M-230.5110977729131,-26.73290933719453L-230.5110977729131,13.057939705669837L-218.546638617187,-39.76053845197746z" style="fill:rgb(153,221,255); fill-opacity: 0.4"></path><path d="M-47.14381240926008,-37.444416535284056L-2.7129327317419873,-85.82345432950211L-114.47387607462971,-96.54455331511888zM-399.7670515515721,-73.81287113154566L-399.7670515515721,81.84985199328112L-321.3288962631168,-66.28838894713301z" style="fill:rgb(238,238,238); fill-opacity: 0.4"></path><path d="M-220.56210059572206,-39.95387940568906L-232.5265597514482,-26.926250290906125L-145.4572957366726,-5.43870300988547z" style="fill:rgb(255,187,187); fill-opacity: 0.4"></path><path d="M101.74702567091046,222.41619010999534L73.80678983518857,219.73591536359115L73.80678983518857,-186.12011957061253z" style="fill:rgb(238,238,238); fill-opacity: 0.4"></path><path d="M-234.54202172998322,-27.119591244617716L-234.54202172998322,12.671257798246652M-234.54202172998322,12.671257798246652L-230.51109777291316,13.057939705669837M-242.725877553813,-58.748091604032965L-242.725877553813,96.9146315207938M-242.725877553813,96.9146315207938L-238.6949535967429,97.30131342821699M-232.52655977939622,12.864599021353184L-232.52655977939622,-26.926249309995356M-232.52655977939622,12.864599021353184L-145.45729274430866,-5.438701988763136M-230.51109777291316,-26.73290933719453L-230.51109777291316,13.057939705669837" style="fill:none;stroke:rgb(0,0,0);stroke-width:1;stroke-linecap:round"></path><path d="M-234.54202172998322,-27.119591244617716L-230.5110977729131,-26.73290933719453L-222.57756257425712,-40.14722035940065z" style="fill:rgb(153,221,255); fill-opacity: 0.4"></path><path d="M-238.6949535967429,-58.36140969660977L-238.6949535967429,97.30131342821699" style="fill:none;stroke:rgb(0,0,0);stroke-width:1;stroke-linecap:round"></path><path d="M-242.725877553813,-58.74809160403295L-238.6949535967429,-58.36140969660977L-195.92063620573782,-109.71247845797593z" style="fill:rgb(238,238,238); fill-opacity: 0.4"></path><path d="M-234.54202172998322,12.671257798246652L-230.5110977729131,13.057939705669837L-230.5110977729131,-26.73290933719453z" style="fill:rgb(153,221,255); fill-opacity: 0.4"></path><path d="M-232.5265597514482,-26.926250290906125L-232.5265597514482,12.864598751958244L-145.4572957366726,-5.43870300988547z" style="fill:rgb(255,187,187); fill-opacity: 0.4"></path><path d="M-232.52655977939622,-26.926249309995356L-145.45729274430866,-5.438701988763136M-399.7670515515722,-73.81287113154566L-321.3288962631168,-66.28838894713301" style="fill:none;stroke:rgb(0,0,0);stroke-width:1;stroke-linecap:round"></path><path d="M-234.54202172998322,-27.119591244617716L-234.54202172998322,12.671257798246652L-230.5110977729131,-26.73290933719453z" style="fill:rgb(153,221,255); fill-opacity: 0.4"></path><path d="M-6.927330887507894,13.97597386668402L38.75647395928655,18.35836881748015M-234.54202172998322,-27.119591244617716L-230.51109777291316,-26.73290933719453" style="fill:none;stroke:rgb(0,0,0);stroke-width:1;stroke-linecap:round"></path><path d="M93.45389451740613,231.4462545251009L101.74702567091046,222.41619010999534L101.74702567091046,-183.43984482420834zM73.80678983518857,219.73591536359115L65.51365868168422,228.76597977869673L65.51365868168422,-177.09005515550695zM-242.725877553813,96.9146315207938L-238.6949535967429,97.301313428217L-238.6949535967429,-58.36140969660977z" style="fill:rgb(238,238,238); fill-opacity: 0.4"></path><path d="M-158.90475575214782,-48.16551552090082L-158.90475575214782,99.60066455282761M-158.90475575214782,99.60066455282761L-47.14381240926008,110.32176353844436" style="fill:none;stroke:rgb(0,0,0);stroke-width:1;stroke-linecap:round"></path><path d="M65.51365868168422,228.76597977869673L93.45389451740613,231.4462545251009L93.45389451740613,-174.40978040910275z" style="fill:rgb(238,238,238); fill-opacity: 0.4"></path><path d="M35.91175467734555,24.529884010457753L38.75647395928655,28.306081078196247L65.6293003397539,20.936248200301403zM40.51460709529488,8.396138422307354L36.99834082327823,12.224862501216522L65.6293003397539,20.936248200301403zM36.99834082327823,12.224862501216522L35.91175467734555,24.529884010457753L65.6293003397539,20.936248200301403z" style="fill:rgb(0,0,0)"></path><path d="M-158.90475575214782,-48.16551552090082L-47.14381240926008,-37.444416535284056L-114.47387607462971,-96.54455331511888z" style="fill:rgb(238,238,238); fill-opacity: 0.4"></path><path d="M210.3057405712592,75.71299219102379L182.3655047355373,73.03271744461959M182.3655047355373,-18.589095876635003L182.3655047355373,73.03271744461959M182.3655047355373,73.03271744461959L174.07237358203295,82.06278185972516" style="fill:none;stroke:rgb(0,0,0);stroke-width:1;stroke-linecap:round"></path><path d="M-242.725877553813,-58.74809160403295L-242.725877553813,96.9146315207938L-238.6949535967429,-58.36140969660977zM-47.14381240926008,-37.444416535284056L-47.14381240926008,110.32176353844436L-2.7129327317419873,-85.82345432950211z" style="fill:rgb(238,238,238); fill-opacity: 0.4"></path><path d="M101.63138401284087,24.389886754187003L147.31518885963533,28.77228170498313M210.3057405712592,-15.908821130230814L210.3057405712592,75.71299219102379M210.3057405712592,75.71299219102379L202.01260941775487,84.74305660612936" style="fill:none;stroke:rgb(0,0,0);stroke-width:1;stroke-linecap:round"></path><path d="M174.0723735820329,82.06278185972518L182.36550473553723,73.03271744461959L210.30574057125912,75.71299219102379zM210.30574057125912,75.71299219102379L182.36550473553723,73.03271744461959L182.36550473553731,-18.589095876635007zM101.74702567091046,-183.43984482420834L101.74702567091046,222.41619010999534L73.80678983518857,-186.12011957061253zM73.80678983518857,-186.12011957061253L73.80678983518857,219.73591536359115L65.51365868168422,-177.09005515550695z" style="fill:rgb(238,238,238); fill-opacity: 0.4"></path><path d="M-47.14381240926008,-37.444416535284056L-47.14381240926008,110.32176353844436M-242.725877553813,-58.748091604032965L-238.6949535967429,-58.36140969660977" style="fill:none;stroke:rgb(0,0,0);stroke-width:1;stroke-linecap:round"></path><path d="M202.0126094177548,84.74305660612936L174.0723735820329,82.06278185972518L210.30574057125912,75.71299219102379zM-158.90475575214782,99.6006645528276L-47.14381240926008,110.32176353844436L-47.14381240926008,-37.444416535284056z" style="fill:rgb(238,238,238); fill-opacity: 0.4"></path><path d="M144.47046957769427,34.94379689796073L147.31518885963527,38.719993965699224L174.18801524010257,31.35016108780438zM149.0733219956436,18.81005130981033L145.55705572362695,22.638775388719495L174.18801524010257,31.35016108780438z" style="fill:rgb(0,0,0)"></path><path d="M210.3057405712592,-15.908821130230814L210.30574057125912,75.71299219102379L182.36550473553731,-18.589095876635007z" style="fill:rgb(238,238,238); fill-opacity: 0.4"></path><path d="M174.07237358203295,-9.55903146152943L174.07237358203295,82.06278185972516M174.07237358203295,82.06278185972516L202.01260941775487,84.74305660612936" style="fill:none;stroke:rgb(0,0,0);stroke-width:1;stroke-linecap:round"></path><path d="M202.0126094177548,84.74305660612936L210.30574057125912,75.71299219102379L210.3057405712592,-15.908821130230814zM182.36550473553723,73.03271744461959L174.0723735820329,82.06278185972518L174.07237358203298,-9.559031461529434z" style="fill:rgb(238,238,238); fill-opacity: 0.4"></path><path d="M145.55705572362695,22.638775388719495L144.47046957769427,34.94379689796073L174.18801524010257,31.35016108780438z" style="fill:rgb(0,0,0)"></path><path d="M182.36550473553731,-18.589095876635007L182.36550473553723,73.03271744461959L174.07237358203298,-9.559031461529434zM-158.90475575214782,-48.16551552090082L-158.90475575214782,99.6006645528276L-47.14381240926008,-37.444416535284056z" style="fill:rgb(238,238,238); fill-opacity: 0.4"></path><path d="M318.86445547160787,86.12690507852676L290.92421963588595,83.44663033212257M290.92421963588595,-8.175182989132031L290.92421963588595,83.44663033212257M290.92421963588595,83.44663033212257L282.6310884823816,92.47669474722814M210.3057405712592,-15.908821130230814L182.3655047355373,-18.589095876635003M182.3655047355373,-18.589095876635003L174.07237358203295,-9.55903146152943" style="fill:none;stroke:rgb(0,0,0);stroke-width:1;stroke-linecap:round"></path><path d="M93.45389451740613,-174.40978040910275L93.45389451740613,231.4462545251009L101.74702567091046,-183.43984482420834z" style="fill:rgb(238,238,238); fill-opacity: 0.4"></path><path d="M202.01260941775487,-6.878756715125244L202.01260941775487,84.74305660612936M-158.90475575214782,-48.16551552090082L-47.14381240926008,-37.444416535284056" style="fill:none;stroke:rgb(0,0,0);stroke-width:1;stroke-linecap:round"></path><path d="M65.51365868168422,-177.09005515550695L65.51365868168422,228.76597977869673L93.45389451740613,-174.40978040910275z" style="fill:rgb(238,238,238); fill-opacity: 0.4"></path><path d="M210.19009891318953,34.80379964168998L255.87390375998396,39.1861945924861M318.86445547160787,-5.494908242727845L318.86445547160787,86.12690507852676M318.86445547160787,86.12690507852676L310.5713243181035,95.15696949363232M210.3057405712592,-15.908821130230814L202.01260941775487,-6.878756715125244" style="fill:none;stroke:rgb(0,0,0);stroke-width:1;stroke-linecap:round"></path><path d="M282.6310884823816,92.47669474722814L290.92421963588595,83.44663033212257L318.86445547160787,86.12690507852676zM174.0723735820329,82.06278185972518L202.0126094177548,84.74305660612936L202.01260941775487,-6.878756715125243zM318.86445547160787,86.12690507852676L290.92421963588595,83.44663033212257L290.92421963588606,-8.17518298913203zM202.01260941775487,-6.878756715125243L210.3057405712592,-15.908821130230814L182.36550473553731,-18.589095876635007zM202.01260941775487,-6.878756715125243L202.0126094177548,84.74305660612936L210.3057405712592,-15.908821130230814zM174.07237358203298,-9.559031461529434L174.0723735820329,82.06278185972518L202.01260941775487,-6.878756715125243zM174.07237358203298,-9.559031461529434L202.01260941775487,-6.878756715125243L182.36550473553731,-18.589095876635007zM310.5713243181035,95.15696949363232L282.6310884823816,92.47669474722814L318.86445547160787,86.12690507852676z" style="fill:rgb(238,238,238); fill-opacity: 0.4"></path><path d="M101.74702567091047,-183.43984482420834L73.80678983518855,-186.12011957061256M73.80678983518855,-186.12011957061256L65.5136586816842,-177.090055155507" style="fill:none;stroke:rgb(0,0,0);stroke-width:1;stroke-linecap:round"></path><path d="M253.02918447804296,45.35770978546371L255.87390375998396,49.133906853202205L282.7467301404513,41.76407397530736zM257.6320368959923,29.223964197313297L254.11577062397564,33.05268827622247L282.7467301404513,41.76407397530736z" style="fill:rgb(0,0,0)"></path><path d="M318.8644554716079,-5.494908242727844L318.86445547160787,86.12690507852676L290.92421963588606,-8.17518298913203z" style="fill:rgb(238,238,238); fill-opacity: 0.4"></path><path d="M282.6310884823816,0.8548814259735401L282.6310884823816,92.47669474722814M282.6310884823816,92.47669474722814L310.5713243181035,95.15696949363232" style="fill:none;stroke:rgb(0,0,0);stroke-width:1;stroke-linecap:round"></path><path d="M310.5713243181035,95.15696949363232L318.86445547160787,86.12690507852676L318.8644554716079,-5.494908242727844z" style="fill:rgb(238,238,238); fill-opacity: 0.4"></path><path d="M174.07237358203295,-9.55903146152943L202.01260941775487,-6.878756715125244" style="fill:none;stroke:rgb(0,0,0);stroke-width:1;stroke-linecap:round"></path><path d="M290.92421963588595,83.44663033212257L282.6310884823816,92.47669474722814L282.63108848238164,0.8548814259735413z" style="fill:rgb(238,238,238); fill-opacity: 0.4"></path><path d="M254.11577062397564,33.05268827622247L253.02918447804296,45.35770978546371L282.7467301404513,41.76407397530736z" style="fill:rgb(0,0,0)"></path><path d="M290.92421963588606,-8.17518298913203L290.92421963588595,83.44663033212257L282.63108848238164,0.8548814259735413z" style="fill:rgb(238,238,238); fill-opacity: 0.4"></path><path d="M318.86445547160787,-5.494908242727845L290.92421963588595,-8.175182989132031M290.92421963588595,-8.175182989132031L282.6310884823816,0.8548814259735401M101.74702567091047,-183.43984482420834L93.45389451740614,-174.40978040910275M310.5713243181035,3.535156172377727L310.5713243181035,95.15696949363232" style="fill:none;stroke:rgb(0,0,0);stroke-width:1;stroke-linecap:round"></path><path d="M93.45389451740613,-174.40978040910275L101.74702567091046,-183.43984482420834L73.80678983518857,-186.12011957061253z" style="fill:rgb(238,238,238); fill-opacity: 0.4"></path><path d="M318.86445547160787,-5.494908242727845L310.5713243181035,3.535156172377727" style="fill:none;stroke:rgb(0,0,0);stroke-width:1;stroke-linecap:round"></path><path d="M282.6310884823816,92.47669474722814L310.5713243181035,95.15696949363232L310.5713243181036,3.5351561723777283zM65.51365868168422,-177.09005515550695L93.45389451740613,-174.40978040910275L73.80678983518857,-186.12011957061253zM310.5713243181036,3.5351561723777283L318.8644554716079,-5.494908242727844L290.92421963588606,-8.17518298913203zM310.5713243181036,3.5351561723777283L310.5713243181035,95.15696949363232L318.8644554716079,-5.494908242727844zM282.63108848238164,0.8548814259735413L282.6310884823816,92.47669474722814L310.5713243181036,3.5351561723777283z" style="fill:rgb(238,238,238); fill-opacity: 0.4"></path><path d="M65.5136586816842,-177.090055155507L93.45389451740614,-174.40978040910275" style="fill:none;stroke:rgb(0,0,0);stroke-width:1;stroke-linecap:round"></path><path d="M282.63108848238164,0.8548814259735413L310.5713243181036,3.5351561723777283L290.92421963588606,-8.17518298913203z" style="fill:rgb(238,238,238); fill-opacity: 0.4"></path><path d="M282.6310884823816,0.8548814259735401L310.5713243181035,3.535156172377727" style="fill:none;stroke:rgb(0,0,0);stroke-width:1;stroke-linecap:round"></path></svg>